<svg width="24" height="24" viewBox="0 0 24 24" fill="none" xmlns="http://www.w3.org/2000/svg">
<path d="M17.6 9.48001L16.4 8.28001C16.2 8.08001 15.9 8.08001 15.7 8.28001C15.5 8.48001 15.5 8.78001 15.7 8.98001L16.8 10.08C15.1 11 13.1 11.5 11 11.5C8.9 11.5 6.9 11 5.2 10.08L6.3 8.98001C6.5 8.78001 6.5 8.48001 6.3 8.28001C6.1 8.08001 5.8 8.08001 5.6 8.28001L4.4 9.48001C2.6 10.78 1.5 12.68 1.5 14.8V16C1.5 16.6 2 17 2.5 17H21.5C22 17 22.5 16.6 22.5 16V14.8C22.5 12.68 21.4 10.78 17.6 9.48001ZM7 14.25C6.6 14.25 6.25 13.9 6.25 13.5C6.25 13.1 6.6 12.75 7 12.75C7.4 12.75 7.75 13.1 7.75 13.5C7.75 13.9 7.4 14.25 7 14.25ZM17 14.25C16.6 14.25 16.25 13.9 16.25 13.5C16.25 13.1 16.6 12.75 17 12.75C17.4 12.75 17.75 13.1 17.75 13.5C17.75 13.9 17.4 14.25 17 14.25Z" fill="currentColor"/>
<path d="M12 1L10.2 4.6C11.3 4.4 11.9 4.3 12 4.3C12.1 4.3 12.7 4.4 13.8 4.6L12 1Z" fill="currentColor"/>
</svg>

